<svg width="235" height="127" viewBox="0 0 235 127" fill="none" xmlns="http://www.w3.org/2000/svg">
<path d="M8 122.4C6.8 122.4 6.13333 122.133 6 121.6C6.26667 121.067 6.4 120.667 6.4 120.4C6.4 120.133 6.26667 119.6 6 118.8L5.6 109C5.86667 108.467 6 107.933 6 107.4C6 107 5.93333 106.533 5.8 106C5.8 105.467 5.73333 104.933 5.6 104.4C5.46667 104.133 5.4 103.667 5.4 103C5.4 102.6 5.4 102.2 5.4 101.8C5.53333 101.267 5.66667 100.733 5.8 100.2C5.8 100.2 5.86667 100.067 6 99.8C6.26667 99.5333 6.4 99.3333 6.4 99.2L5.8 98.4C5.4 98.1333 5.2 97.9333 5.2 97.8V92.4C5.2 92.2667 5.2 92.1333 5.2 92C5.33333 91.8667 5.46667 91.6667 5.6 91.4C5.86667 90.6 6 90.1333 6 90C6 89.8667 5.86667 89.8 5.6 89.8C5.2 89.8 5 89.7333 5 89.6L4.8 85.4C4.8 85.1333 4.86667 84.9333 5 84.8C5.13333 84.6667 5.2 84.4 5.2 84L3.6 80C3.6 79.8667 4 79.2 4.8 78C5.46667 76.6667 5.8 76 5.8 76L4.4 74.8C4.53333 74.1333 4.53333 73.4 4.4 72.6C4.4 71.6667 4.4 70.7333 4.4 69.8V67.2L4 66.6C3.73333 66.3333 3.6 66.0667 3.6 65.8C3.46667 65.4 3.6 64.8667 4 64.2L5 62.8C5 62.8 4.86667 62.6667 4.6 62.4C4.33333 62.1333 4.2 62 4.2 62L3.4 58L3.6 57.2L3.8 56.6C3.8 56.4667 3.8 56.2667 3.8 56C3.8 55.7333 3.73333 55.4 3.6 55L3.4 53.4C3.53333 53.1333 3.6 52.8667 3.6 52.6C3.6 52.3333 3.66667 52 3.8 51.6L2.8 44.8C2.8 44.8 2.93333 44.2 3.2 43C3.06667 41.1333 2.93333 40.2667 2.8 40.4C3.06667 40.2667 3.26667 40.0667 3.4 39.8C3.66667 39.5333 3.93333 39.2667 4.2 39C4.46667 38.7333 4.26667 38.2667 3.6 37.6C3.2 37.4667 2.66667 37.0667 2 36.4C2.13333 35.8667 2.26667 35.2 2.4 34.4C2.66667 33.4667 2.8 32.4667 2.8 31.4V28.6C2.8 27.8 2.86667 27 3 26.2C3.13333 25.4 3.26667 24.6 3.4 23.8L2.4 19.6L3.6 18.2L2.2 17.6C1.53333 17.3333 1.33333 16.6667 1.6 15.6L2 12.4C2.13333 11.3333 2.2 10.6 2.2 10.2C2.2 9.66666 2.2 9.33333 2.2 9.2L0.2 4.8V4.39999C0.2 4.13333 0.2 3.93333 0.2 3.8C0.333333 3.53333 0.466667 3.19999 0.6 2.8C1 1.73333 1.26667 1.19999 1.4 1.19999L4 2.19999C4.13333 2.06666 4.53333 1.86666 5.2 1.59999C6 1.33333 6.46667 1.19999 6.6 1.19999L7.6 1.39999C7.73333 1.39999 7.8 1.46666 7.8 1.59999C7.93333 1.59999 8.06667 1.59999 8.2 1.59999C9.13333 1.73333 9.93333 1.86666 10.6 2C11.4 2 12.0667 1.93333 12.6 1.8C13 1.8 13.2667 1.53333 13.4 0.999997C13.5333 0.733326 14 0.466659 14.8 0.199996C15.4667 0.199996 16 0.266661 16.4 0.399993C16.9333 0.399993 17.4 0.466659 17.8 0.59999C19.2667 1.13332 19.9333 1.46666 19.8 1.59999C19.9333 1.59999 20.3333 1.46666 21 1.19999L22 1.39999C22.2667 1.39999 22.4 1.46666 22.4 1.59999C22.5333 1.59999 22.6667 1.59999 22.8 1.59999C23.2 1.19999 23.6 0.866662 24 0.59999C24 0.59999 25.2 0.466659 27.6 0.199996C28.2667 0.199996 28.8667 0.333327 29.4 0.59999C29.6667 0.73333 29.9333 0.933331 30.2 1.19999C30.6 1.46666 31 1.73333 31.4 2C31.6667 2.13333 31.6667 2.53333 31.4 3.19999L32 3.8C32.2667 3.8 32.4667 3.73333 32.6 3.6C33.6667 1.33333 34.3333 0.199996 34.6 0.199996C34.8667 0.199996 35.2 0.66666 35.6 1.59999C36 2.66666 36.4667 3.13333 37 3C37.1333 2.73332 37.6667 2.13332 38.6 1.19999C38.7333 1.06666 38.8667 1.13333 39 1.39999C39.4 1.79999 39.6667 2 39.8 2C41.4 2.66666 42.6 3 43.4 3L43.8 2.8H44.4C44.8 2.8 45.4 3.33333 46.2 4.39999C46.8667 5.46666 47.2 6.26666 47.2 6.79999C47.3333 7.2 47.4 8 47.4 9.2L47.6 9.59999L48 10C48.5333 10 48.9333 8.86667 49.2 6.6H50.2V7.19999C50.2 7.59999 50.2667 7.79999 50.4 7.79999C50.9333 8.59999 51.6 9.39999 52.4 10.2C52.6667 10.2 52.9333 10.2667 53.2 10.4C53.4667 10.4 53.8 10.4667 54.2 10.6L55.2 13C55.2 13.1333 55.1333 13.3333 55 13.6C55 13.7333 55 13.9333 55 14.2C55 14.7333 55.0667 15.2667 55.2 15.8C55.4667 16.3333 55.6667 16.9333 55.8 17.6C56.3333 17.3333 56.8 17.2667 57.2 17.4C57.8667 18.4667 58.2 19.5333 58.2 20.6C58.3333 20.8667 58.2667 21.3333 58 22C57.6 22.5333 57.4 23.1333 57.4 23.8L58 26.8C58.1333 26.9333 58.2667 27.1333 58.4 27.4C58.6667 27.6667 58.8667 27.9333 59 28.2L59.2 30.4C59.3333 30.5333 59.4667 30.6667 59.6 30.8C59.7333 30.9333 59.8667 31.1333 60 31.4V32.4C60 33.4667 59.8 34.1333 59.4 34.4C59.2667 34.4 59.2 34.6 59.2 35C59.2 35.8 59.4667 36.9333 60 38.4V38.2L60.6 39.8L60.2 42.6C60.2 42.7333 60.1333 42.8667 60 43L59.8 43.2C59.8 43.6 59.8667 43.8667 60 44V44.6C60 44.7333 59.9333 44.8667 59.8 45C59.8 45 59.8 45.0667 59.8 45.2L60 47.2C60.1333 47.3333 60.2667 47.6 60.4 48C60.5333 48.2667 60.6667 48.6 60.8 49L60.4 50.8C60.2667 50.9333 60.2 51.2 60.2 51.6C60.3333 51.8667 60.3333 52.2667 60.2 52.8L60 54C60 54.2667 60.1333 54.6667 60.4 55.2C61.2 55.2 61.6 55.7333 61.6 56.8C61.6 57.0667 61.4 57.4 61 57.8C60.6 58.2 60.1333 58.8 59.6 59.6V59.8C59.6 59.8 59.9333 59.9333 60.6 60.2C61.1333 60.3333 61.4 60.6667 61.4 61.2L61.2 61.8C61.2 61.9333 61.1333 62.0667 61 62.2C60.8667 62.2 60.8 62.2667 60.8 62.4L61.4 64.8L60.8 65.6C60.4 66 60.2 66.2667 60.2 66.4C60.2 66.5333 60.4667 66.8667 61 67.4C61.4 67.9333 61.6 68.2667 61.6 68.4L61.2 69.6C60.9333 70.5333 60.8 71 60.8 71C60.8 71.1333 61.3333 71.5333 62.4 72.2V73.2C61.3333 73.4667 60.7333 74.7333 60.6 77C60.6 77.4 60.8667 77.6667 61.4 77.8C61.8 78.2 62 78.4667 62 78.6C62 78.7333 61.9333 78.8667 61.8 79L61.6 79.2L61.8 83.4C61.9333 83.5333 61.8667 83.8 61.6 84.2L62.2 86.4C62.3333 86.6667 62.2667 86.7333 62 86.6C61.8667 86.4667 61.7333 86.6667 61.6 87.2L61.4 89L62 91.4L62.6 94C62.6 94.4 62.3333 94.8667 61.8 95.4C61.4 95.8 61.2 96.0667 61.2 96.2C60.8 97.4 60.6 97.8667 60.6 97.6C60.6 97.7333 60.7333 98.0667 61 98.6C61.2667 99 61.2667 99.3333 61 99.6L60 100.8C59.8667 101.467 59.7333 102.333 59.6 103.4C59.4667 104.467 59.2667 105.667 59 107C58.6 107.133 57.9333 107.667 57 108.6C57 108.733 56.9333 109 56.8 109.4C56.8 109.8 56.7333 110.333 56.6 111C56.4667 111.4 56.1333 111.667 55.6 111.8C54.8 112.067 54.4 112.2 54.4 112.2C54.1333 112.733 53.7333 113.333 53.2 114C52.8 114.667 52.2667 115.333 51.6 116L51.4 115.8H51.2L46.6 118C46.4667 118 46.2 118 45.8 118C45.5333 118 45.1333 118.067 44.6 118.2C44.2 118.333 43.6667 118.533 43 118.8C42.4667 119.067 41.8667 119.333 41.2 119.6C40.9333 119.733 40.5333 119.8 40 119.8C39.4667 119.8 38.8667 119.867 38.2 120L36.8 119.6L35 120.6L31.2 120.8C31.2 120.667 31.0667 120.6 30.8 120.6C30.5333 120.467 30.3333 120.4 30.2 120.4C30.2 120.4 29.8 120.533 29 120.8L27.8 121.2C27.5333 121.067 27.2 121 26.8 121C26.5333 120.867 26.1333 120.733 25.6 120.6C24.6667 121.133 23.7333 121.467 22.8 121.6L21.4 121.2C20.8667 121.067 20.4667 121 20.2 121C20.0667 121 19.9333 121 19.8 121L18.2 121.4L16.4 121.8L13.2 121.6C12.2667 121.467 11.5333 121.467 11 121.6C10.4667 121.6 10.1333 121.6 10 121.6L9.2 122C8.4 122.267 8 122.4 8 122.4ZM22.4 7.6C23.0667 7.6 23.7333 7.33333 24.4 6.79999C24.5333 6.66666 24.6 6.4 24.6 5.99999C24.6 5.33333 24.2 4.99999 23.4 4.99999C22.0667 5.13332 21.4 5.79999 21.4 6.99999L21.6 7.4C21.7333 7.53333 22 7.6 22.4 7.6ZM17.4 10.6C17.5333 10.3333 17.4667 10.0667 17.2 9.79999C17.0667 9.66666 16.7333 9.73333 16.2 10C16.4667 10.4 16.8667 10.6 17.4 10.6ZM45.2 11.4C45.4667 11.4 45.2667 11.2 44.6 10.8C44.6 10.8 44.4667 10.9333 44.2 11.2C44.3333 11.3333 44.6667 11.4 45.2 11.4ZM41.4 14.4C41.4 14.1333 41.2 13.9333 40.8 13.8L40.2 14C40.2 14 40.6 14.1333 41.4 14.4ZM45.4 18L46.8 17.6L46 16C45.4667 16.1333 45.2667 16.4 45.4 16.8V18ZM27.6 101.4C27.8667 101.133 28.2667 100.867 28.8 100.6C29.3333 100.333 29.9333 100.067 30.6 99.8C31.9333 99.8 33.4667 99.6 35.2 99.2C35.4667 99.0667 35.7333 98.9333 36 98.8C36.2667 98.6667 36.6 98.5333 37 98.4H38C38.2667 98.4 38.4667 98.4667 38.6 98.6C38.7333 98.6 38.8667 98.6 39 98.6C39.8 98.6 40.0667 98.4667 39.8 98.2C39.5333 97.5333 39.6 96.8 40 96L40.8 94.2C40.6667 93.8 40.6 93.3333 40.6 92.8C40.6 92.2667 40.5333 91.7333 40.4 91.2C40.8 87.4667 40.9333 85.5333 40.8 85.4V81.4C40.8 79.5333 40.6 78.1333 40.2 77.2C40.4667 76.9333 40.6667 76.6667 40.8 76.4C41.0667 76 41.2667 75.5333 41.4 75C41 74.6 40.6 74 40.2 73.2C40.2 73.2 40.3333 72.9333 40.6 72.4C40.8667 72.1333 41 71.9333 41 71.8C40.6 71.4 40.2 70.8 39.8 70L40.4 67.6C40.6667 66.8 40.6667 66.2667 40.4 66L39.8 65.4C39.5333 64.7333 39.5333 64.2 39.8 63.8C40.4667 61.4 40.8 60.4 40.8 60.8C40.8 60.6667 40.5333 60.3333 40 59.8C39.3333 59.4 39 59.0667 39 58.8L39.4 57.8C39.6667 57.2667 39.8 56.9333 39.8 56.8C39.6667 56.2667 39.6 55.6667 39.6 55C39.6 54.2 39.6 53.3333 39.6 52.4L39.8 51.6C39.9333 51.3333 40 51.0667 40 50.8L39.4 49.6C39.4 49.0667 39.4 48.4 39.4 47.6C39.4 46.8 39.3333 45.9333 39.2 45L38.6 42.6L39.2 39.6L38.2 37.4C38.3333 36.3333 38.5333 34.6 38.8 32.2L37.6 31.6C37.6 31.0667 37.5333 30.4667 37.4 29.8C37.4 29.1333 37.3333 28.3333 37.2 27.4C36.9333 25.9333 35.6667 24.6667 33.4 23.6L31.8 23.4C31.6667 23.1333 31.5333 22.9333 31.4 22.8C31.2667 22.5333 31.0667 22.2667 30.8 22C30.5333 21.8667 30.1333 21.8 29.6 21.8C29.2 21.6667 28.6667 21.6 28 21.6C27.7333 21.8667 27.4667 22 27.2 22L25.2 21.4C24.8 21.4 24.2667 21.6667 23.6 22.2C22.6667 22.7333 22.2 23.2667 22.2 23.8V24.2C22.2 24.4667 22.2 24.8 22.2 25.2C22.3333 25.4667 22.4667 25.8 22.6 26.2L23.2 27.8C22.9333 28.3333 22.8 28.8667 22.8 29.4L22.6 33.2C22.6 33.4667 22.5333 33.6667 22.4 33.8L22 34.6L23 35.6C22.7333 36.4 22.7333 37.5333 23 39L23.8 40V40.4C23.8 40.5333 23.7333 40.8 23.6 41.2C23.6 41.4667 23.5333 41.8 23.4 42.2L24 43.6C23.8667 46.5333 23.8667 48.2667 24 48.8L24.6 51.2L24.4 52.6L25 54C25 54 24.8 54.3333 24.4 55C23.8667 55.5333 23.6 56.0667 23.6 56.6L24 57.8C24.1333 57.9333 24.1333 58.2 24 58.6C24 58.8667 24.0667 59.2667 24.2 59.8L24.4 61.6L24.8 63.2C24.6667 63.3333 24.6 63.6 24.6 64C24.8667 64.6667 24.9333 65 24.8 65L24.2 66.6C24.2 66.6 24.2667 66.8 24.4 67.2C24.5333 67.6 24.7333 68.1333 25 68.8C25.2667 69.4667 25.4 70.1333 25.4 70.8C25.5333 71.3333 25.6667 71.8667 25.8 72.4L25 77.6C25 77.7333 25.2 78.3333 25.6 79.4C26 80.3333 26.2 81 26.2 81.4C26.2 82.2 26 83.1333 25.6 84.2C25.2 85.2667 24.9333 85.8 24.8 85.8L25.6 87.8C25.8667 88.4667 26 89 26 89.4C26.1333 89.6667 26.2 89.8667 26.2 90L25.8 90.8C25.5333 91.6 25.4 92 25.4 92V93.8C25.4 94.2 25.6 94.7333 26 95.4C26.2667 95.9333 26.4 96.6 26.4 97.4C26.4 97.9333 26 98.3333 25.2 98.6C24.4 99 24 99.3333 24 99.6C24 99.8667 24.1333 100.133 24.4 100.4C25.3333 101.067 26.4 101.4 27.6 101.4ZM44.8 60.4C44.9333 60.4 45.2667 60.2667 45.8 60C46.3333 59.6 46.6 59.4 46.6 59.4V59C46.4667 59.1333 46.2 59.1333 45.8 59L44.8 60.4ZM48.6 63.2C48.8667 63.2 49 63 49 62.6V62.2L48.4 62.4L48.6 63.2ZM9.6 66.2C11.3333 66.2 12.0667 66.0667 11.8 65.8C11.4 64.3333 10.4 63.5333 8.8 63.4L8.6 63.8C8.33333 64.0667 8.13333 64.2 8 64.2L7.8 64H7.6C6.8 64 6.26667 64.2667 6 64.8C5.86667 65.0667 6 65.3333 6.4 65.6C8.26667 66 9.33333 66.2 9.6 66.2ZM47.4 80.6C48.3333 80.6 48.9333 80.0667 49.2 79C48 79 47.4 79.5333 47.4 80.6ZM18 81.6C18.1333 81.4667 18 81.2 17.6 80.8L17 81.2C17.2667 81.2 17.4667 81.2667 17.6 81.4L18 81.6ZM47 87.8L51.6 87.2V87C50.9333 86.7333 50.4 86.1333 50 85.2C49.4667 84.2667 49.0667 83.8 48.8 83.8C48.1333 83.8 47.8 84.1333 47.8 84.8C47.8 85.8667 47.4667 86.7333 46.8 87.4C46.8 87.4 46.8667 87.5333 47 87.8ZM18.2 88.2L19.6 87.6L19 86C18.4667 86.1333 18.2 86.4 18.2 86.8V88.2ZM10.6 91C10.4667 91 10.2 91.2 9.8 91.6L10.6 93V91ZM41 114C41 113.6 40.8667 113.267 40.6 113C40.3333 112.733 40.0667 112.867 39.8 113.4C39.8 113.8 40.2 114 41 114ZM12 114.6L12.8 116.2V114.2C12.6667 114.067 12.4 114.2 12 114.6ZM36.6 116.4C36.6 116.133 36.4667 115.867 36.2 115.6C36.0667 115.333 35.8 115.4 35.4 115.8C35.6667 116.2 36.0667 116.4 36.6 116.4ZM91.0609 124.6L89.6609 123.6L88.8609 123.8C88.5943 123.933 88.2609 124 87.8609 124L86.2609 123.2C85.3276 122.667 84.7276 122.4 84.4609 122.4C84.0609 122.4 83.7943 122.667 83.6609 123.2C83.1276 123.733 82.6609 123.933 82.2609 123.8L81.4609 123.6C81.0609 123.467 80.6609 123.4 80.2609 123.4L79.2609 123.8C78.7276 123.933 78.3276 123.933 78.0609 123.8C78.0609 123.8 77.6609 123.667 76.8609 123.4L75.6609 122.8C75.6609 122.8 74.9276 123.2 73.4609 124H72.4609L72.0609 123.4L72.6609 120.4C72.7943 119.733 72.9943 119.067 73.2609 118.4C73.5276 117.6 73.7276 116.733 73.8609 115.8L73.2609 114.8C73.1276 114.4 72.9276 114.067 72.6609 113.8C72.5276 113.533 72.4609 113.267 72.4609 113L73.4609 110C73.3276 108.4 73.3276 106 73.4609 102.8C74.3943 102.8 75.3276 102.6 76.2609 102.2C76.2609 101.933 75.7943 101.533 74.8609 101L73.2609 100.2L74.4609 99V97.2C74.0609 96.8 73.7943 96.4 73.6609 96L73.4609 93.2C73.5943 91.6 73.9943 90.0667 74.6609 88.6H75.4609C75.7276 88.6 75.9276 88.1333 76.0609 87.2C76.0609 86.4 75.9943 85.9333 75.8609 85.8C75.7276 85.9333 75.3943 86 74.8609 86L74.0609 84.4C73.9276 83.4667 73.7943 82.7333 73.6609 82.2C73.6609 81.5333 73.7276 80.9333 73.8609 80.4C73.8609 79.4667 74.3943 78.4667 75.4609 77.4C75.5943 77 75.6609 76.6 75.6609 76.2C75.6609 75.8 75.6609 75.4667 75.6609 75.2C75.6609 74.1333 75.4609 73.5333 75.0609 73.4L75.8609 64.4C75.0609 63.3333 74.6609 62.4667 74.6609 61.8L74.8609 56L76.0609 48.4C76.0609 48.2667 75.7276 47.8667 75.0609 47.2C75.5943 46.4 75.8609 45.7333 75.8609 45.2L76.2609 41C76.1276 40.7333 76.0609 40.4667 76.0609 40.2C76.0609 39.8 75.9943 39.3333 75.8609 38.8L76.2609 36.8C76.3943 36.6667 76.5943 36.5333 76.8609 36.4C77.1276 36.2667 77.3943 36.1333 77.6609 36C77.9276 35.6 77.7276 35.4 77.0609 35.4H76.0609C76.1943 35.2667 76.3276 34.7333 76.4609 33.8C76.3276 33.2667 76.2609 32.7333 76.2609 32.2C76.2609 31.5333 76.2609 30.8 76.2609 30C76.3943 29.3333 76.4609 28.8 76.4609 28.4C76.5943 27.8667 76.6609 27.4667 76.6609 27.2C76.6609 26.2667 76.5943 25.5333 76.4609 25C76.4609 24.4667 76.5276 24.1333 76.6609 24L77.4609 23L76.4609 22C76.3276 21.8667 76.2609 21.3333 76.2609 20.4L77.2609 16.2C77.1276 15.9333 77.0609 15.3333 77.0609 14.4L77.6609 13.2C77.5276 12.9333 77.3276 12.6667 77.0609 12.4C76.9276 12 76.7943 11.5333 76.6609 11C76.6609 10.8667 76.7943 10.6667 77.0609 10.4C77.3276 10.1333 77.4609 9.86666 77.4609 9.59999L76.8609 6.4C76.9943 6.26666 77.1276 5.93333 77.2609 5.4C77.1276 5.13333 76.9276 4.73333 76.6609 4.19999V2.59999H78.4609L80.0609 3.6L84.0609 4.19999C84.0609 4.33332 83.8609 4.93332 83.4609 5.99999C83.7276 6.26666 84.0609 6.26666 84.4609 5.99999C84.5943 5.73333 84.5276 5.13333 84.2609 4.19999C84.5276 3.93333 85.2609 3.8 86.4609 3.8C87.3943 3.8 88.1276 3.93333 88.6609 4.19999L90.2609 3C90.1276 3.13333 90.4609 3.46666 91.2609 3.99999C92.0609 4.26666 92.8609 4.39999 93.6609 4.39999L94.2609 3.99999C94.3943 3.86666 94.5943 3.8 94.8609 3.8L96.4609 3.99999C96.7276 3.99999 96.9943 4.06666 97.2609 4.19999C97.5276 4.33332 97.7276 4.39999 97.8609 4.39999L98.6609 3.99999C99.1943 3.73333 99.4609 3.6 99.4609 3.6C100.794 3.6 101.328 4 101.061 4.8L100.661 7.4C100.394 7.66666 100.128 8.13333 99.8609 8.79999C99.7276 8.93332 99.6609 9.26666 99.6609 9.79999C99.6609 10.7333 99.5943 11.2667 99.4609 11.4C98.6609 11.8 98.2609 12.0667 98.2609 12.2C97.9943 11.9333 97.7276 11.7333 97.4609 11.6L97.0609 12.2C96.9276 12.3333 97.0609 12.4667 97.4609 12.6C97.5943 12.6 97.7276 12.5333 97.8609 12.4C97.8609 12.2667 97.9276 12.2667 98.0609 12.4L99.8609 13.4L99.4609 20.2C98.5276 20.7333 97.9276 22.0667 97.6609 24.2C98.1943 24.7333 98.6609 25 99.0609 25C99.1943 25 99.3276 24.9333 99.4609 24.8C99.4609 24.6667 99.5276 24.6 99.6609 24.6C99.9276 24.6 100.394 24.9333 101.061 25.6C100.661 26.4 100.061 26.4 99.2609 25.6L98.6609 27.2C98.1276 27.4667 97.7276 27.8 97.4609 28.2C97.4609 29.4 97.9943 30.2 99.0609 30.6C98.7943 30.4667 98.5276 31 98.2609 32.2C98.9276 32.4667 99.2609 32.9333 99.2609 33.6C99.2609 34 98.9276 34.5333 98.2609 35.2L98.6609 36L98.4609 36.8C98.4609 36.6667 98.1276 36.5333 97.4609 36.4C97.4609 36.4 97.1276 36.7333 96.4609 37.4C96.1943 37.5333 95.8609 37.6667 95.4609 37.8C95.0609 37.9333 94.5276 38.1333 93.8609 38.4C94.1276 38.8 94.4609 39 94.8609 39H95.6609C95.6609 39.2667 95.7943 39.5333 96.0609 39.8C95.9276 40.0667 95.8609 40.6 95.8609 41.4C96.5276 41.6667 97.1943 42.2 97.8609 43C97.9943 43.4 98.0609 44.1333 98.0609 45.2C97.9276 46.4 97.7276 47.1333 97.4609 47.4C97.3276 47.6667 97.2609 47.9333 97.2609 48.2L98.0609 51.8C98.1943 52.3333 98.2609 53 98.2609 53.8C98.2609 54.3333 98.1943 54.8 98.0609 55.2C98.0609 55.4667 97.9943 55.7333 97.8609 56C98.2609 56.9333 98.4609 57.6 98.4609 58L96.8609 60.2C96.7276 60.4667 96.6609 60.9333 96.6609 61.6C96.7943 61.6 97.0609 62.0667 97.4609 63C97.7276 63.5333 97.8609 64 97.8609 64.4C97.8609 65.0667 97.4609 65.6 96.6609 66C96.6609 66.2667 96.7276 66.6 96.8609 67C96.9943 67.4 97.1276 67.9333 97.2609 68.6L97.6609 70.4C97.5276 70.5333 97.3943 70.7333 97.2609 71C97.2609 71.2667 97.1276 71.5333 96.8609 71.8L97.2609 73.8C97.1276 73.9333 96.9276 74.2 96.6609 74.6C96.3943 74.8667 96.1276 75.2 95.8609 75.6C95.7276 76 95.6609 76.7333 95.6609 77.8C95.6609 78.3333 95.8609 78.9333 96.2609 79.6L96.0609 80.4C96.3276 80.5333 96.4609 81.0667 96.4609 82V83.8C96.8609 84.7333 97.1276 85.2667 97.2609 85.4L95.4609 87.4C95.7276 87.5333 95.9943 87.6667 96.2609 87.8C96.5276 87.9333 96.8609 88.1333 97.2609 88.4C96.9943 89.4667 96.6609 90.4 96.2609 91.2C95.5943 92.2667 95.2609 92.9333 95.2609 93.2L96.4609 99C96.3276 99.1333 96.1943 99.2667 96.0609 99.4C95.9276 99.5333 95.7943 99.7333 95.6609 100L95.4609 103.8C95.3276 103.933 94.9943 104.133 94.4609 104.4C94.4609 105.067 94.8609 105.533 95.6609 105.8C94.9943 106.067 94.6609 106.4 94.6609 106.8V107.2C94.6609 107.867 94.9276 108.4 95.4609 108.8C96.1276 109.467 96.4609 110 96.4609 110.4L95.4609 111.8V114H95.0609C94.2609 114 93.3276 114.267 92.2609 114.8L93.0609 115.6H93.4609C94.9276 115.6 95.7276 117.067 95.8609 120H94.6609C94.3943 119.733 93.8609 120.133 93.0609 121.2C93.0609 121.2 93.2609 121.333 93.6609 121.6L94.8609 121.2L95.4609 123.6C93.7276 124.133 92.9276 124.4 93.0609 124.4H93.2609C93.2609 124.4 93.1943 124.4 93.0609 124.4L92.0609 124.2C91.6609 124.2 91.3276 124.333 91.0609 124.6ZM90.2609 14.8C90.6609 14.9333 91.0609 14.7333 91.4609 14.2C91.3276 14.0667 91.1276 14 90.8609 14C90.4609 14 90.2609 14.2667 90.2609 14.8ZM93.2609 23.2L93.8609 23L94.4609 21.6C94.9943 21.3333 95.4609 21 95.8609 20.6L94.2609 16.8C93.7276 16.9333 93.3276 17.1333 93.0609 17.4V18C93.0609 18.5333 92.9276 19.0667 92.6609 19.6C92.1276 20 91.5276 20.6 90.8609 21.4C91.6609 22.6 92.4609 23.2 93.2609 23.2ZM89.8609 28.2C89.9943 27.8 89.9276 27.4667 89.6609 27.2C89.5276 26.9333 89.2609 27 88.8609 27.4C88.8609 27.6667 89.1943 27.9333 89.8609 28.2ZM88.6609 31.6L88.2609 32.4C88.3943 32.2667 88.5276 32.2 88.6609 32.2H88.8609C88.8609 31.9333 88.7943 31.7333 88.6609 31.6ZM76.0609 35.4C76.0609 35.5333 76.0609 35.5333 76.0609 35.4V35.4ZM80.2609 38.6C80.5276 38.7333 80.7943 38.6667 81.0609 38.4C81.3276 38.1333 81.2609 37.8667 80.8609 37.6C80.4609 37.6 80.2609 37.9333 80.2609 38.6ZM89.4609 51.4C89.5943 51.1333 89.5276 50.8667 89.2609 50.6C89.1276 50.3333 88.8609 50.4 88.4609 50.8C88.4609 51.2 88.7943 51.4 89.4609 51.4ZM80.2609 51.6C80.3943 51.4667 80.4609 51.1333 80.4609 50.6H79.6609C79.5276 50.6 79.5943 50.7333 79.8609 51C80.1276 51.2667 80.2609 51.4667 80.2609 51.6ZM81.4609 61.4C81.5943 61.2667 81.6609 61.0667 81.6609 60.8C81.6609 60.4 81.3943 60.2667 80.8609 60.4C80.5943 60.6667 80.7943 61 81.4609 61.4ZM86.4609 73V72.2C86.3276 71.9333 86.1276 71.9333 85.8609 72.2L86.4609 73ZM87.4609 83C87.7276 82.7333 87.8609 82.5333 87.8609 82.4C87.8609 82 87.5276 81.8 86.8609 81.8C86.7276 82.2 86.9276 82.6 87.4609 83ZM80.6609 85.4L82.0609 84.4C81.7943 83.7333 81.2609 83.1333 80.4609 82.6C79.5276 82.4667 79.0609 82.6667 79.0609 83.2C79.0609 84 79.5943 84.7333 80.6609 85.4ZM97.2609 85.2C97.2609 85.3333 97.2609 85.4 97.2609 85.4V85.2ZM76.0609 106.4C76.4609 106.533 76.8609 106.267 77.2609 105.6C77.1276 105.467 76.9276 105.4 76.6609 105.4C76.2609 105.4 76.0609 105.733 76.0609 106.4ZM88.4609 117.6C88.4609 117.2 88.3943 116.933 88.2609 116.8C88.1276 116.667 87.7943 116.733 87.2609 117C87.2609 117.4 87.6609 117.6 88.4609 117.6ZM75.8609 119.6C75.8609 119.333 75.7276 119.067 75.4609 118.8C75.1943 118.533 74.9276 118.533 74.6609 118.8C74.6609 119.067 75.0609 119.333 75.8609 119.6ZM138.775 126.6C137.708 126.6 136.842 126.4 136.175 126C135.642 125.6 134.908 125.4 133.975 125.4L133.775 125.6C133.775 125.6 133.642 125.6 133.375 125.6C133.242 125.733 132.775 125.6 131.975 125.2L130.375 124.6L130.175 124.8C130.175 124.933 130.108 125 129.975 125C130.242 125 129.708 124.667 128.375 124C127.708 124 126.908 123.733 125.975 123.2L123.175 120.8C122.908 120.667 122.508 120.533 121.975 120.4C121.575 120.267 121.108 120.133 120.575 120C119.908 119.6 119.042 119 117.975 118.2C117.042 117.4 116.042 116.333 114.975 115L114.775 113.6L113.775 112.2L113.375 109.4C113.242 108.867 112.975 108.267 112.575 107.6C112.308 106.8 112.042 105.933 111.775 105C111.375 104.867 110.842 104.333 110.175 103.4C109.375 101.533 108.975 100.267 108.975 99.6C108.975 99.4667 109.108 99.2667 109.375 99C109.642 98.6 109.842 98.4 109.975 98.4C109.708 98 109.042 97.4667 107.975 96.8L107.775 94.6C108.708 93.9333 109.308 93.6 109.575 93.6H110.975C111.375 93.4667 111.842 93.3333 112.375 93.2C112.908 93.0667 113.508 92.9333 114.175 92.8C114.842 92.5333 115.375 92.7333 115.775 93.4C115.908 93.9333 116.308 94.2 116.975 94.2C117.108 94.2 117.442 93.7333 117.975 92.8L119.775 90.4C121.775 91.0667 122.975 91.3333 123.375 91.2L126.575 89H128.575V91.2L130.375 92L129.975 95C129.975 95.2667 130.175 95.6 130.575 96C130.975 96.4 131.175 96.6667 131.175 96.8C131.308 96.9333 131.242 97.2667 130.975 97.8L130.375 98.8C130.642 99.8667 131.242 100.8 132.175 101.6C132.442 101.6 132.975 101.733 133.775 102C133.775 102.533 133.975 103 134.375 103.4C134.908 103.8 135.442 103.867 135.975 103.6C135.975 103.6 136.108 104.2 136.375 105.4C136.642 106.067 136.908 106.4 137.175 106.4C137.175 106.4 137.442 106.267 137.975 106C138.242 105.733 138.508 105.6 138.775 105.6L139.775 105.8C140.042 105.8 140.242 105.867 140.375 106C140.508 106.133 140.642 106.2 140.775 106.2C140.908 106.2 141.175 106 141.575 105.6C142.108 105.333 142.442 105.2 142.575 105.2C142.708 105.067 143.175 105.133 143.975 105.4L145.175 105.8C145.175 105.8 145.442 105.667 145.975 105.4L146.575 105.2C146.575 105.2 146.975 105.333 147.775 105.6C148.042 105.333 148.175 105.067 148.175 104.8C148.175 103.733 148.375 102.333 148.775 100.6L150.575 100.4C151.242 100.4 151.642 100.133 151.775 99.6C151.642 99.4667 151.442 99.2667 151.175 99C150.908 98.7333 150.642 98.4667 150.375 98.2C150.242 97.6667 150.108 97.1333 149.975 96.6C149.842 95.9333 149.708 95.2667 149.575 94.6C149.575 94.2 149.775 93.8 150.175 93.4C150.575 93.2667 150.908 93.0667 151.175 92.8C151.175 92.8 150.908 92.8667 150.375 93C149.708 93 149.175 92.3333 148.775 91L147.975 88.6C147.575 88.3333 147.242 88 146.975 87.6C146.442 87.0667 146.175 86.5333 146.175 86C146.175 85.7333 146.242 85.5333 146.375 85.4C146.242 85.1333 145.842 85.1333 145.175 85.4L144.175 82.6C144.042 82.6 143.975 82.6667 143.975 82.8C143.708 83.0667 143.508 83.2 143.375 83.2C143.242 83.0667 142.975 83 142.575 83L142.175 81.2L140.775 80.6L138.375 78.4C138.242 78.1333 137.975 77.9333 137.575 77.8C137.308 77.6667 136.908 77.4667 136.375 77.2L136.175 75.6C136.042 75.3333 135.842 75.1333 135.575 75C135.308 74.7333 135.042 74.4667 134.775 74.2H133.775C133.642 74.3333 133.308 74.4 132.775 74.4C132.642 74.5333 132.308 74.2 131.775 73.4C131.508 72.8667 131.242 72.4667 130.975 72.2C130.708 71.8 130.442 71.5333 130.175 71.4L126.975 69.4L125.375 68.8L125.175 67L121.775 65.2L120.975 63.8C120.708 63.1333 120.175 62.8 119.375 62.8H119.175C118.775 62.4 118.575 62 118.575 61.6C116.708 58.5333 115.708 57 115.575 57C115.575 57 115.175 57.1333 114.375 57.4H114.175C113.508 57.4 113.108 56.9333 112.975 56L112.375 53.6C111.042 53.6 110.175 52.0667 109.775 49L107.975 48.2C107.842 47.2667 107.708 46.6 107.575 46.2C107.575 45.8 107.575 45.6667 107.575 45.8C107.708 44.6 107.842 44.1333 107.975 44.4C107.842 43.7333 107.442 43.2667 106.775 43C106.375 43 106.042 42.8 105.775 42.4C105.642 40.9333 105.642 39.5333 105.775 38.2C105.908 36.7333 106.042 35.2667 106.175 33.8C106.175 33.4 106.042 32.8 105.775 32L105.175 30.6L105.775 29.8V29C105.775 27.6667 106.042 26.2 106.575 24.6C106.708 24.6 106.975 24.6 107.375 24.6C107.775 24.4667 108.108 24.2 108.375 23.8L107.175 21.2L109.775 16.2C110.842 14.3333 111.708 13.4 112.375 13.4L113.575 13.6C113.708 13.6 113.842 13.5333 113.975 13.4C113.975 13.2667 113.842 12.7333 113.575 11.8H114.375C114.642 11.8 114.775 11.8 114.775 11.8L115.975 10.2C116.242 9.93333 116.975 9.66666 118.175 9.4L118.975 7.19999H119.775C119.908 7.33333 120.042 7.46666 120.175 7.6C120.308 7.73333 120.442 7.93333 120.575 8.2C121.508 7.8 122.308 6.86666 122.975 5.4L124.775 3.99999C124.775 3.99999 124.842 3.99999 124.975 3.99999C125.242 3.99999 125.575 3.93333 125.975 3.8L126.975 3.99999C127.375 4.13333 127.708 4.19999 127.975 4.19999C128.375 4.19999 129.042 3.73333 129.975 2.8C131.042 1.99999 131.642 1.59999 131.775 1.59999L133.575 2.59999C133.575 2.99999 133.642 3.33333 133.775 3.6L136.975 2C137.375 2 138.375 2.6 139.975 3.8C140.242 4.19999 140.242 5.13332 139.975 6.6L140.575 6.4L140.775 5.6C141.042 5.46667 141.308 5.26666 141.575 4.99999C141.842 4.73333 142.175 4.46666 142.575 4.19999C142.575 3.93333 142.775 3.53333 143.175 3C143.308 3.13333 143.442 3.26666 143.575 3.39999C143.842 3.53333 144.108 3.73333 144.375 3.99999C144.908 4.53333 145.308 4.8 145.575 4.8C145.842 4.53332 146.242 4.33332 146.775 4.19999H147.175C148.375 4.19999 149.708 4.66666 151.175 5.6L153.775 7.6L153.975 8.59999C153.708 8.59999 153.375 8.8 152.975 9.2C153.375 9.86666 153.975 10.2 154.775 10.2V11C155.042 11.1333 155.508 11.0667 156.175 10.8C156.442 11.6 157.108 12 158.175 12C158.442 12 158.775 12.3333 159.175 13C159.042 13.4 159.042 13.8667 159.175 14.4C160.642 17.0667 161.375 18.2667 161.375 18V18.2C161.375 18.6 161.108 19.3333 160.575 20.4C159.908 22 159.575 22.8667 159.575 23C159.575 23.5333 160.375 23.9333 161.975 24.2C163.442 24.4667 164.108 24.7333 163.975 25L164.975 26.4C164.842 26.5333 164.775 26.8 164.775 27.2C164.775 27.6 164.908 28.2 165.175 29C165.708 30.2 165.975 31.0667 165.975 31.6C165.708 31.8667 165.375 32.2 164.975 32.6C164.575 32.8667 164.108 33.2 163.575 33.6C163.308 33.7333 162.842 33.8667 162.175 34C161.642 34.1333 160.842 34.2667 159.775 34.4L155.375 35C155.108 35.1333 154.775 35.2667 154.375 35.4C153.975 35.5333 153.575 35.6667 153.175 35.8L150.775 35C149.975 35.2667 149.375 36 148.975 37.2C148.442 38.5333 147.908 39.2 147.375 39.2C147.242 39.2 147.042 38.8667 146.775 38.2C146.375 37.5333 146.108 37.2 145.975 37.2C145.842 37.2 145.575 37.4 145.175 37.8L143.975 38L143.575 36.6C143.575 36.0667 143.775 35.6 144.175 35.2C144.442 34.6667 144.575 34.3333 144.575 34.2L143.575 33C144.108 32.6 144.575 31.8 144.975 30.6C144.175 30.6 143.175 30.4 141.975 30C141.975 29.7333 141.908 29.4 141.775 29C141.642 28.4667 141.442 27.9333 141.175 27.4L140.375 25.2C139.708 24.2667 138.375 23.5333 136.375 23L134.575 23.2C134.308 23.2 133.975 23.2667 133.575 23.4C133.308 23.4 132.908 23.4667 132.375 23.6C131.975 23.6 131.442 23 130.775 21.8C130.508 21.8 130.375 22.0667 130.375 22.6L131.375 24.6C129.908 25.8 128.708 26.3333 127.775 26.2V29.2C127.508 29.4667 127.308 29.7333 127.175 30C127.175 30.2667 127.175 30.6 127.175 31C127.308 31.4 127.442 31.8667 127.575 32.4C127.842 33.6 127.908 34.4 127.775 34.8C127.775 34.9333 127.708 35.0667 127.575 35.2C127.308 35.4667 127.175 35.8 127.175 36.2C127.175 36.4667 127.375 36.8 127.775 37.2C128.042 37.7333 128.175 38 128.175 38C128.175 38.1333 127.708 38.6667 126.775 39.6C125.842 40.5333 125.375 41.0667 125.375 41.2C125.508 43.7333 126.508 45 128.375 45H128.975C129.375 45 129.775 45 130.175 45C130.575 44.8667 130.975 44.8 131.375 44.8C131.908 44.8 132.442 44.8667 132.975 45C133.508 45 134.042 45.0667 134.575 45.2V47.2C134.575 48 135.442 49.1333 137.175 50.6C137.442 50.6 137.775 50.6667 138.175 50.8C138.708 50.8 139.242 50.8667 139.775 51L140.375 52.2C140.642 52.3333 141.108 52.7333 141.775 53.4L142.575 55C142.842 55.4 143.108 55.6 143.375 55.6C144.442 55.4667 145.108 55.3333 145.375 55.2C145.508 55.2 145.508 55.2 145.375 55.2C145.775 58.6667 146.042 60.4 146.175 60.4L148.375 57.8H148.975L149.775 60C149.908 60.1333 149.975 60.2 149.975 60.2C150.108 60.2 150.175 60.2 150.175 60.2L151.375 59.8C151.908 59.9333 152.108 60.6 151.975 61.8L153.975 62.8C154.108 62.8 154.575 63.3333 155.375 64.4C156.575 64.4 157.442 64.8667 157.975 65.8C158.108 66.0667 158.242 66.4 158.375 66.8C158.508 67.0667 158.708 67.4667 158.975 68L160.575 68.8C160.575 69.0667 160.575 69.4 160.575 69.8C160.575 70.2 160.642 70.7333 160.775 71.4C160.775 72.0667 160.908 72.5333 161.175 72.8C161.308 72.8 161.775 72.3333 162.575 71.4C163.242 71.5333 163.708 72.2 163.975 73.4C164.242 74.4667 164.642 75 165.175 75C165.442 75 165.642 74.9333 165.775 74.8C165.908 75.2 165.975 75.6667 165.975 76.2C165.975 76.6 165.975 77.0667 165.975 77.6C165.975 78 166.242 78.4 166.775 78.8C167.308 79.0667 167.775 79.1333 168.175 79L168.975 81.6C169.242 82.2667 169.042 82.7333 168.375 83C168.642 83.2667 168.908 83.3333 169.175 83.2L168.975 84.2L169.975 85.8L170.175 87.4C170.575 87.8 170.842 88.1333 170.975 88.4C171.508 89.0667 171.842 91.2667 171.975 95C171.842 95.4 171.775 96.2 171.775 97.4L170.975 98.6C171.242 99.1333 171.442 100.133 171.575 101.6L170.775 102.4C170.775 103.2 170.042 105.4 168.575 109L167.775 108.4C167.375 108.533 167.175 108.933 167.175 109.6C167.175 111.333 167.108 112.267 166.975 112.4L164.975 113.6C165.108 114.533 165.108 115.2 164.975 115.6L161.775 118.2L160.975 119.4C160.042 120.067 159.108 120.733 158.175 121.4C157.375 121.933 156.508 122.333 155.575 122.6C155.442 122.6 155.175 122.667 154.775 122.8C154.508 122.8 154.108 122.867 153.575 123C153.042 123.667 152.108 124.467 150.775 125.4L148.775 124.8L147.575 125.4C147.308 125.667 146.508 125.8 145.175 125.8H141.975C141.442 125.933 140.908 126.067 140.375 126.2C139.975 126.333 139.442 126.467 138.775 126.6ZM119.175 25.6C119.308 25.4667 119.775 25.2667 120.575 25L122.175 25.2L123.775 25.6C124.842 25.3333 125.375 24.7333 125.375 23.8L125.175 23L122.375 23.4C121.708 23.4 121.042 23.6667 120.375 24.2C119.442 23.5333 118.775 23.2 118.375 23.2C118.508 23.4667 118.642 23.8 118.775 24.2C118.908 24.6 119.042 25.0667 119.175 25.6ZM115.375 25.2C115.775 25.4667 116.108 25.2 116.375 24.4C116.108 24.1333 115.842 24.1333 115.575 24.4C115.308 24.6667 115.242 24.9333 115.375 25.2ZM155.975 25.8L156.775 25C156.775 24.8667 156.508 24.8667 155.975 25V25.8ZM158.575 26.8C158.975 26.9333 159.375 26.7333 159.775 26.2C159.642 26.0667 159.442 26 159.175 26C158.775 26 158.575 26.2667 158.575 26.8ZM124.575 29C124.575 28.4667 124.442 28.2 124.175 28.2C124.042 27.9333 123.775 28 123.375 28.4C123.375 28.8 123.775 29 124.575 29ZM110.375 34.8C110.508 34.9333 110.575 35.0667 110.575 35.2C110.708 35.3333 110.842 35.4667 110.975 35.6C110.975 35.4667 110.975 35.2667 110.975 35V34.8H110.375ZM137.975 56.2C138.242 56.2 138.508 56.0667 138.775 55.8C139.042 55.5333 138.908 55.2667 138.375 55C138.108 55.2667 137.975 55.6667 137.975 56.2ZM122.375 56.2C122.375 55.9333 122.242 55.6667 121.975 55.4C121.708 55.1333 121.442 55.2667 121.175 55.8C121.175 56.2 121.575 56.3333 122.375 56.2ZM150.775 81.6C151.042 81.6 151.308 81.4667 151.575 81.2C151.575 80.8 151.442 80.4667 151.175 80.2C150.775 80.4667 150.642 80.9333 150.775 81.6ZM159.175 84.4C159.175 84.1333 159.042 83.8667 158.775 83.6C158.375 83.3333 158.042 83.4667 157.775 84C158.042 84.4 158.508 84.5333 159.175 84.4ZM162.575 92C162.575 91.6 162.375 91.3333 161.975 91.2C161.708 91.2 161.442 91.3333 161.175 91.6C161.442 92 161.908 92.1333 162.575 92ZM151.175 92.6C151.308 92.7333 151.308 92.8 151.175 92.8C151.308 92.6667 151.375 92.6 151.375 92.6H151.175ZM120.975 97L121.775 96.4C121.775 96.4 121.642 96.2667 121.375 96C121.375 96 121.308 96.1333 121.175 96.4C121.042 96.6667 120.975 96.8667 120.975 97ZM127.975 119.6L128.775 119.4C128.908 119.267 129.375 119.2 130.175 119.2L132.575 116.4C132.308 116.133 132.042 115.733 131.775 115.2C131.508 114.533 131.242 113.8 130.975 113V112.4C130.975 111.733 131.175 111.2 131.575 110.8L129.575 111L130.775 115C130.775 116.067 130.642 116.467 130.375 116.2L130.175 116C130.175 116 130.042 116 129.775 116C129.508 116.4 128.775 117.2 127.575 118.4C127.842 118.667 127.975 119.067 127.975 119.6ZM137.975 113C137.975 112.867 137.775 112.6 137.375 112.2C137.375 112.2 137.242 112.333 136.975 112.6C136.975 112.6 137.108 112.667 137.375 112.8C137.642 112.933 137.842 113 137.975 113ZM124.775 115.6C124.775 115.333 124.642 115.067 124.375 114.8C124.242 114.533 123.975 114.6 123.575 115C123.575 115.4 123.975 115.6 124.775 115.6ZM138.375 116C138.508 115.733 138.442 115.467 138.175 115.2C138.042 114.933 137.708 115.067 137.175 115.6C137.442 116 137.842 116.133 138.375 116ZM202.591 124.6L199.991 123.4C199.324 123.133 198.457 122.933 197.391 122.8C197.524 122.933 196.591 123.2 194.591 123.6H192.791L191.391 123.2C190.324 122.933 189.791 122.8 189.791 122.8L188.991 123C188.724 123.133 188.457 123.2 188.191 123.2L186.791 122.8C186.524 122.8 186.257 122.867 185.991 123C185.724 123 185.457 123.067 185.191 123.2C184.391 123.467 183.657 123.6 182.991 123.6C181.257 123.333 180.457 122.333 180.591 120.6L181.791 114.4C181.657 113.867 181.591 113.4 181.591 113C181.591 112.6 181.591 112.2 181.591 111.8C181.591 111.533 181.991 111 182.791 110.2C182.257 109 181.991 108.067 181.991 107.4C182.124 107.133 182.257 106.867 182.391 106.6C182.524 106.333 182.657 105.933 182.791 105.4C182.657 105 182.591 104.2 182.591 103C182.991 102.6 183.257 102.2 183.391 101.8L182.991 100C183.257 99.7333 183.457 99.3333 183.591 98.8V97.6C183.857 97.2 184.057 96.8 184.191 96.4C184.457 95.8667 184.724 95.3333 184.991 94.8L184.191 91.8C184.057 91.8 183.857 91.6 183.591 91.2L183.191 90.4C183.457 89.6 184.057 89 184.991 88.6L185.391 90.6C185.924 91.5333 186.457 92 186.991 92C187.391 92 187.857 91.8 188.391 91.4V90.6L187.191 89.6C187.191 88.5333 187.124 87.8667 186.991 87.6C186.857 86.6667 186.324 86.2 185.391 86.2C184.991 85.9333 184.591 86.1333 184.191 86.8C184.591 86.1333 184.924 85.2667 185.191 84.2V83.8C185.191 83.5333 185.191 83.2667 185.191 83C185.191 82.6 185.124 82.1333 184.991 81.6V81C184.991 80.7333 185.124 80.2 185.391 79.4L185.591 79L185.191 77.6C185.591 77.2 185.991 76.9333 186.391 76.8L185.391 71.4C185.257 71 185.191 70.6 185.191 70.2C185.191 69.8 185.191 69.4 185.191 69C185.191 68.3333 185.257 67.5333 185.391 66.6C185.657 65.6667 185.857 64.6 185.991 63.4L186.791 57.8C187.191 57.5333 187.524 57.1333 187.791 56.6L187.191 53.4L187.791 46.8C187.924 46.1333 188.057 45.4667 188.191 44.8C188.324 44.1333 188.524 43.5333 188.791 43C189.457 42.7333 189.924 42.2667 190.191 41.6C190.057 41.0667 189.457 40.8 188.391 40.8C188.524 40.6667 188.591 40.4667 188.591 40.2L188.391 39.4C188.524 37.8 188.591 37 188.591 37L188.391 36.6C188.391 36.0667 188.991 35.7333 190.191 35.6L191.991 35.4C193.857 33.5333 194.791 32.4 194.791 32C194.791 31.3333 194.457 31 193.791 31H193.391C192.724 31 191.857 31.2667 190.791 31.8C190.657 31.8 190.457 31.6 190.191 31.2L190.391 27.8C190.524 27.5333 190.591 26.8667 190.591 25.8C190.457 25.5333 190.324 25.2667 190.191 25C190.057 24.7333 189.857 24.4667 189.591 24.2H188.191L186.191 22.8C186.057 22.6667 185.857 22.6 185.591 22.6C185.324 22.6 185.057 22.5333 184.791 22.4L180.991 23.2C180.724 23.0667 180.391 23 179.991 23C179.724 22.8667 179.324 22.7333 178.791 22.6C178.391 22.7333 177.591 22.8 176.391 22.8L174.591 22.4L171.991 23C170.657 22.8667 170.057 22.2 170.191 21C170.457 20.8667 170.657 20.6667 170.791 20.4C171.057 20.1333 171.324 19.8667 171.591 19.6L171.391 18.2L171.791 16.6V16C171.791 15.4667 171.724 14.9333 171.591 14.4L172.591 13.6L172.991 8.2C172.991 8.06666 172.724 7.73332 172.191 7.19999C171.924 6.93333 172.057 6.46666 172.591 5.79999C172.591 5.66666 172.457 5.33333 172.191 4.8C172.457 2.4 172.924 1.19999 173.591 1.19999C173.857 1.19999 174.257 1.4 174.791 1.8C175.457 2.19999 175.791 2.39999 175.791 2.39999C176.591 1.86666 177.257 1.53332 177.791 1.39999L180.391 2.39999C180.391 2.79999 180.391 3.33333 180.391 3.99999C180.391 4.53333 180.457 5.13333 180.591 5.79999L181.791 7.19999C182.591 6.79999 182.991 6.4 182.991 5.99999L182.591 5.19999C182.457 5.06666 182.391 4.86666 182.391 4.6C182.391 4.33333 182.524 4.13333 182.791 3.99999C183.057 3.73333 183.257 3.4 183.391 3L184.391 0.999997C184.657 1.26666 185.057 1.66666 185.591 2.19999C186.124 2.73333 186.657 3.33333 187.191 3.99999H187.591C188.257 3.99999 188.657 3.79999 188.791 3.39999C188.924 2.86666 189.124 2.59999 189.391 2.59999C189.791 2.46666 190.257 2.39999 190.791 2.39999C191.324 2.26666 191.857 2.26666 192.391 2.39999L193.791 3C194.324 3.13333 194.657 3.33333 194.791 3.6C195.057 3.73333 195.257 3.8 195.391 3.8C195.524 3.8 195.991 3.26666 196.791 2.19999C197.457 2.46666 197.657 2.93333 197.391 3.6C197.257 4.13333 197.391 4.66666 197.791 5.19999L199.191 4.6C199.324 4.73333 199.457 4.8 199.591 4.8C199.724 4.8 199.857 4.86666 199.991 4.99999C200.257 5.4 200.724 6.06666 201.391 6.99999H201.991L202.591 4.99999C202.857 4.2 203.191 3.8 203.591 3.8C204.124 3.8 204.791 3.99999 205.591 4.39999L206.191 5.6L206.991 5.79999V4.19999L208.791 4.39999C209.591 4.39999 210.457 4.66666 211.391 5.19999L212.391 6.4L215.791 4.8C216.191 5.06666 216.657 5.33333 217.191 5.6C217.324 5.46667 217.791 5.26666 218.591 4.99999C218.991 4.99999 219.791 5.39999 220.991 6.19999L222.591 5.19999H223.391C223.391 5.33333 223.524 5.53333 223.791 5.79999V6.19999C223.791 6.73332 224.057 7.26666 224.591 7.79999C225.257 7.93332 225.657 7.73332 225.791 7.19999L226.391 5.79999C227.057 5.39999 227.791 5.19999 228.591 5.19999C229.257 5.33333 229.724 5.53333 229.991 5.79999C230.257 6.2 230.391 6.4 230.391 6.4H230.991C231.257 6.4 231.591 6.4 231.991 6.4C232.524 6.26666 233.124 6.13332 233.791 5.99999C234.057 6.26666 234.191 6.6 234.191 6.99999C233.924 8.06666 233.657 8.99999 233.391 9.79999C233.657 10.7333 233.657 11.5333 233.391 12.2C232.724 12.8667 232.457 13.6 232.591 14.4L232.791 15.4C232.924 15.8 232.991 16.2 232.991 16.6C232.991 17.4 232.524 18.0667 231.591 18.6V18.8C231.591 19.4667 231.257 20.1333 230.591 20.8C230.991 21.7333 231.191 22.7333 231.191 23.8C231.457 23.9333 231.724 24.0667 231.991 24.2C232.257 24.3333 232.524 24.5333 232.791 24.8L232.591 27C231.657 27.6667 230.857 28 230.191 28L229.191 27.2C228.924 27.0667 228.591 27 228.191 27C227.924 27 227.591 26.9333 227.191 26.8H226.191C225.924 26.8 225.724 26.8667 225.591 27C225.457 27 225.324 27 225.191 27C224.524 27 224.124 26.7333 223.991 26.2C223.724 25.9333 223.391 26.1333 222.991 26.8L220.591 26.6C219.924 26.4667 219.324 26.4 218.791 26.4C218.391 26.4 218.124 26.3333 217.991 26.2C217.457 26.0667 216.991 25.1333 216.591 23.4L215.991 23.2V24.2L214.391 25.8C214.124 25.9333 213.791 26.0667 213.391 26.2C213.124 26.3333 212.724 26.5333 212.191 26.8L211.791 30.8H211.191C210.257 30.8 209.591 31.2667 209.191 32.2C209.591 32.4667 209.991 32.8667 210.391 33.4C210.924 33.8 211.457 34.3333 211.991 35C212.257 35.5333 212.324 36.0667 212.191 36.6C212.057 36.7333 211.991 37 211.991 37.4C211.991 37.8 211.924 38.3333 211.791 39C211.257 39.2667 210.857 39.6 210.591 40L211.191 42.6V44.4C210.924 45.3333 210.524 46.2667 209.991 47.2C209.857 46.9333 209.391 46.5333 208.591 46C207.657 46 206.724 46.2667 205.791 46.8C204.857 48.9333 204.791 50 205.591 50L209.791 49.8C209.791 50.2 209.857 50.6667 209.991 51.2C210.124 51.3333 210.057 51.6667 209.791 52.2L210.191 53C210.324 53.4 210.324 53.6667 210.191 53.8L209.791 54.8C209.657 55.0667 209.524 55.2667 209.391 55.4C209.257 55.5333 209.191 55.6667 209.191 55.8C209.191 56.6 209.457 57 209.991 57V58.2C209.991 59.6667 209.724 61 209.191 62.2L209.391 65.2C209.257 65.3333 209.124 65.4667 208.991 65.6C208.857 65.7333 208.724 65.9333 208.591 66.2L208.791 66.8C208.791 66.9333 208.791 67.0667 208.791 67.2C208.924 67.2 208.991 67.2667 208.991 67.4L209.191 69.6L207.991 72.6C207.857 73 207.524 73.2 206.991 73.2C206.324 73.0667 205.857 73 205.591 73C205.457 73.1333 205.324 73.4667 205.191 74C205.191 74.5333 205.657 74.8667 206.591 75L208.591 75.6V76.4L207.591 77.6C207.457 77.7333 207.257 78.4667 206.991 79.8C206.457 79.9333 206.191 80.3333 206.191 81C206.191 82.3333 206.124 83.0667 205.991 83.2L206.991 83.8C207.124 84.2 207.191 84.7333 207.191 85.4C207.191 86.7333 206.857 87.7333 206.191 88.4C205.524 89.0667 205.191 89.4667 205.191 89.6L205.591 91C205.857 91.5333 205.791 92.0667 205.391 92.6C205.791 94.2 205.924 95.3333 205.791 96C205.524 97.6 205.324 98.9333 205.191 100C205.057 100.933 204.991 101.6 204.991 102L205.391 102.8C205.657 103.333 205.657 103.733 205.391 104C205.391 104.533 205.124 105.067 204.591 105.6C204.324 105.867 204.057 106.133 203.791 106.4C203.657 106.667 203.524 106.867 203.391 107L203.791 107.8C203.657 107.933 203.591 108.333 203.591 109C203.991 110.467 204.257 111.2 204.391 111.2C204.657 111.2 204.324 111.8 203.391 113C202.991 112.6 202.391 112.4 201.591 112.4C201.057 112.4 200.057 112.6 198.591 113C198.591 112.067 198.257 111.6 197.591 111.6C197.057 111.6 196.724 112.067 196.591 113V113.2C196.591 114.933 197.924 115.933 200.591 116.2C200.991 116.2 201.324 116.067 201.591 115.8C202.124 115.4 202.191 114.933 201.791 114.4C202.057 114.8 202.324 115.2 202.591 115.6C202.991 116 203.457 116.4 203.991 116.8C204.124 116.933 204.191 117.267 204.191 117.8C204.191 118.333 204.124 119.133 203.991 120.2C203.857 121.267 203.657 122.6 203.391 124.2C203.124 124.467 202.857 124.6 202.591 124.6ZM180.791 10.6C180.924 10.3333 180.857 10.0667 180.591 9.79999C180.457 9.66666 180.191 9.66666 179.791 9.79999C179.791 10.0667 180.124 10.3333 180.791 10.6ZM224.191 13.4C224.324 13.1333 224.457 12.8667 224.591 12.6C224.857 12.2 225.057 11.7333 225.191 11.2C225.324 10.2667 224.991 9.79999 224.191 9.79999C223.924 9.79999 223.391 9.93333 222.591 10.2L224.191 13.4ZM218.991 14.6C219.124 14.4667 219.457 14.2667 219.991 14C219.857 13.8667 219.524 13.8667 218.991 14V14.6ZM183.391 16.8H183.591C183.991 16.8 184.591 16.6 185.391 16.2L185.591 15.4C185.324 15.1333 184.991 14.9333 184.591 14.8C184.191 14.8 183.924 15.0667 183.791 15.6L183.391 16.8ZM221.391 16.2C221.791 16.3333 222.191 16.1333 222.591 15.6C222.457 15.4667 222.257 15.4 221.991 15.4C221.591 15.4 221.391 15.6667 221.391 16.2ZM193.191 17.8C193.591 17.9333 193.991 17.7333 194.391 17.2C194.124 16.9333 193.924 16.8 193.791 16.8C193.391 16.8 193.191 17.1333 193.191 17.8ZM192.791 52.2V51.4C192.657 51.2667 192.457 51.2 192.191 51.2L192.791 52.2ZM193.391 62.2C193.524 62.0667 193.591 61.8667 193.591 61.6C193.591 61.2 193.324 61 192.791 61C192.657 61.4 192.857 61.8 193.391 62.2ZM199.391 75C199.524 74.7333 199.457 74.4667 199.191 74.2C198.924 73.9333 198.591 73.9333 198.191 74.2C198.191 74.4667 198.591 74.7333 199.391 75ZM191.391 77.6C191.657 77.8667 192.057 77.7333 192.591 77.2C192.324 76.9333 192.124 76.8 191.991 76.8C191.591 76.8 191.391 77.0667 191.391 77.6ZM200.191 89.2C200.457 89.3333 200.857 89.1333 201.391 88.6C201.257 88.4667 200.991 88.4 200.591 88.4C200.191 88.4 200.057 88.6667 200.191 89.2ZM197.191 108.2C197.857 108.2 198.257 107.8 198.391 107C198.391 106.6 198.324 106.333 198.191 106.2L196.991 106C196.724 105.467 196.524 105.133 196.391 105L195.591 104.8L194.991 106.2C194.991 107.267 195.724 107.933 197.191 108.2ZM185.991 119C186.124 119 185.991 118.733 185.591 118.2C185.457 118.2 185.257 118.333 184.991 118.6L185.991 119Z" fill="#2976E6"/>
</svg>
