<svg width="177" height="183" viewBox="0 0 177 183" fill="none" xmlns="http://www.w3.org/2000/svg">
<g filter="url(#filter0_d_11_438)">
<ellipse cx="84.5" cy="91.5" rx="47.5" ry="45.5" fill="#2976E6"/>
<path d="M112.366 146.469L73.6957 146.087L74.774 37.001L113.764 37.3864C124.736 37.4948 134.16 39.772 142.035 44.218C149.911 48.6284 155.94 54.9206 160.12 63.0944C164.337 71.2686 166.389 81.0195 166.277 92.347C166.165 103.71 163.92 113.454 159.542 121.579C155.2 129.704 149.013 135.911 140.98 140.199C132.983 144.489 123.445 146.578 112.366 146.469ZM96.9546 126.553L111.602 126.698C118.42 126.766 124.167 125.615 128.843 123.246C133.554 120.842 137.107 117.095 139.501 112.005C141.931 106.88 143.186 100.251 143.267 92.1196C143.346 84.0589 142.222 77.4601 139.893 72.3232C137.6 67.1866 134.14 63.3881 129.512 60.9274C124.884 58.4668 119.161 57.2028 112.343 57.1354L97.6422 56.9901L96.9546 126.553Z" fill="#F5F5F5"/>
<g filter="url(#filter1_f_11_438)">
<circle cx="84.5" cy="94.5" r="82.5" fill="#D9D9D9" fill-opacity="0.4"/>
</g>
</g>
<defs>
<filter id="filter0_d_11_438" x="0" y="6" width="177" height="177" filterUnits="userSpaceOnUse" color-interpolation-filters="sRGB">
<feFlood flood-opacity="0" result="BackgroundImageFix"/>
<feColorMatrix in="SourceAlpha" type="matrix" values="0 0 0 0 0 0 0 0 0 0 0 0 0 0 0 0 0 0 127 0" result="hardAlpha"/>
<feOffset dx="4"/>
<feGaussianBlur stdDeviation="3"/>
<feComposite in2="hardAlpha" operator="out"/>
<feColorMatrix type="matrix" values="0 0 0 0 0 0 0 0 0 0 0 0 0 0 0 0 0 0 0.2 0"/>
<feBlend mode="normal" in2="BackgroundImageFix" result="effect1_dropShadow_11_438"/>
<feBlend mode="normal" in="SourceGraphic" in2="effect1_dropShadow_11_438" result="shape"/>
</filter>
<filter id="filter1_f_11_438" x="1" y="11" width="167" height="167" filterUnits="userSpaceOnUse" color-interpolation-filters="sRGB">
<feFlood flood-opacity="0" result="BackgroundImageFix"/>
<feBlend mode="normal" in="SourceGraphic" in2="BackgroundImageFix" result="shape"/>
<feGaussianBlur stdDeviation="0.5" result="effect1_foregroundBlur_11_438"/>
</filter>
</defs>
</svg>
